<svg width="59" height="34" viewBox="0 0 59 34" fill="none" xmlns="http://www.w3.org/2000/svg">
<g clip-path="url(#clip0)">
<path d="M33.6059 30.255H5.12472C2.66096 30.255 0.689941 28.284 0.689941 25.8203V5.1246C0.689941 2.66083 2.66096 0.689819 5.12472 0.689819H42.3769C44.8407 0.689819 46.8117 2.66083 46.8117 5.1246V7.88402" stroke="#36C233" stroke-width="1.5" stroke-miterlimit="10"/>
<path d="M7.68701 8.67249H25.229" stroke="#36C233" stroke-width="1.5" stroke-miterlimit="10"/>
<path d="M7.68701 15.4724H35.8725" stroke="#36C233" stroke-width="1.5" stroke-miterlimit="10"/>
<path d="M7.68701 22.371H35.8725" stroke="#36C233" stroke-width="1.5" stroke-miterlimit="10"/>
<path d="M48.8813 12.6145C51.2465 12.6145 53.0204 13.8957 53.0204 18.0348C53.0204 20.9913 51.148 23.4551 48.8813 23.4551C46.5161 23.4551 44.7422 20.9913 44.7422 17.9362C44.7422 13.8957 46.5161 12.6145 48.8813 12.6145Z" stroke="#36C233" stroke-width="1.5" stroke-miterlimit="10"/>
<path d="M45.8263 24.0464C44.6437 25.0319 44.1509 25.229 43.3625 25.6232C41.6872 26.4116 40.1104 26.8058 40.1104 28.7768C40.1104 29.3681 40.1104 29.5652 40.1104 29.8609C40.1104 31.142 40.406 31.2406 41.5886 31.8319C43.7567 33.0145 45.8263 33.4087 48.6843 33.3102C51.5422 33.3102 53.8089 32.916 55.7799 31.8319C56.9625 31.142 57.2582 31.142 57.2582 29.8609C57.2582 29.5652 57.2582 29.3681 57.2582 28.7768C57.2582 26.6087 55.5828 26.3131 54.006 25.6232C53.2176 25.229 52.7248 25.0319 51.5422 24.0464" stroke="#36C233" stroke-width="1.5" stroke-miterlimit="10"/>
</g>
<defs>
<clipPath id="clip0">
<rect width="58.0464" height="34" fill="white"/>
</clipPath>
</defs>
</svg>
